# xmcd
#
# Track frame offsets: 
#        150
#        13801
#        27037
#        40386
#        56619
#        70036
#        83448
#        97234
#        111407
#        124653
#        137132
#        151092
#        163122
#        176475
#        191037
#        202620
#        218282
#        230876
#        245643
#        260486
#        274277
#        288390
#        302710
#        316989
#        329384
#
# Disc length: 4593 seconds
#
# Revision: 1
# Processed by: cddbd v1.5.2PL0 Copyright (c) Steve Scherf et al.
# Submitted via: ExactAudioCopyFreeDBPlugin 1.0
#
DISCID=6611ef19
DTITLE=The Carter Family - Wildwood Flower [CD2)
DYEAR=2009
DGENRE=Country
TTITLE0=My Home's Across The Blue Ridge Mountains
TTITLE1=Are You Lonesome Tonight?
TTITLE2=My Dixie Darling
TTITLE3=Motherless Children
TTITLE4=Give Me Your Love And I'll Give You Mine
TTITLE5=The Cannonball
TTITLE6=The Wayworn Traveller
TTITLE7=When Silver Threads Are Gold Again
TTITLE8=There's No One Like Mother To Me
TTITLE9=Single Girl, Married Girl
TTITLE10=The Last Move For Me
TTITLE11=Jealous Hearted Me
TTITLE12=Carter's Blues
TTITLE13=In The Shadow Of Clinch Mountain
TTITLE14=Jimmie Brown The Newsboy
TTITLE15=When The Roses Bloom In Dixieland
TTITLE16=In The Valley Of Shenandoah
TTITLE17=No Telephone In Heaven
TTITLE18=Jim Blake's Message
TTITLE19=Chewing Gum
TTITLE20=The Broken Down Tramp
TTITLE21=Answer To Weeping Willow
TTITLE22=You've Been A Friend To Me
TTITLE23=Lay My Head Beneath The Rose
TTITLE24=Never Let The Devil Get The Upper Hand
EXTD=
EXTT0=
EXTT1=
EXTT2=
EXTT3=
EXTT4=
EXTT5=
EXTT6=
EXTT7=
EXTT8=
EXTT9=
EXTT10=
EXTT11=
EXTT12=
EXTT13=
EXTT14=
EXTT15=
EXTT16=
EXTT17=
EXTT18=
EXTT19=
EXTT20=
EXTT21=
EXTT22=
EXTT23=
EXTT24=
PLAYORDER=
